<svg xmlns="http://www.w3.org/2000/svg" xmlns:xlink="http://www.w3.org/1999/xlink" width="375" viewBox="0 0 375 375" height="375" version="1.0"><defs><g id="a"><path d="M 39.859375 9.515625 C 35.816406 9.515625 32.546875 8.660156 30.046875 6.953125 C 27.546875 5.253906 25.660156 3.09375 24.390625 0.46875 C 24.148438 0.46875 23.929688 0.488281 23.734375 0.53125 C 23.535156 0.570312 23.359375 0.59375 23.203125 0.59375 C 18.128906 0.59375 14.082031 -1.109375 11.0625 -4.515625 C 8.050781 -7.929688 6.546875 -13.367188 6.546875 -20.828125 L 6.546875 -62.46875 C 6.546875 -69.925781 8.050781 -75.359375 11.0625 -78.765625 C 14.082031 -82.179688 18.128906 -83.890625 23.203125 -83.890625 C 28.285156 -83.890625 32.332031 -82.179688 35.34375 -78.765625 C 38.351562 -75.359375 39.859375 -69.925781 39.859375 -62.46875 L 39.859375 -20.828125 C 39.859375 -15.347656 39.046875 -10.984375 37.421875 -7.734375 C 35.796875 -4.484375 33.515625 -2.179688 30.578125 -0.828125 C 31.691406 1.546875 33 3.566406 34.5 5.234375 C 36.007812 6.898438 37.796875 7.734375 39.859375 7.734375 L 41.0625 7.734375 L 41.0625 9.515625 Z M 23.6875 -1.1875 L 22.25 -5 C 21.769531 -6.34375 21.289062 -7.671875 20.8125 -8.984375 C 20.34375 -10.296875 19.828125 -11.484375 19.265625 -12.546875 C 18.710938 -13.617188 18.039062 -14.472656 17.25 -15.109375 C 16.457031 -15.742188 15.46875 -16.0625 14.28125 -16.0625 L 14.28125 -13.6875 C 14.4375 -9.238281 15.328125 -6.039062 16.953125 -4.09375 C 18.578125 -2.15625 20.660156 -1.1875 23.203125 -1.1875 Z M 29.390625 -4.046875 C 30.265625 -5.160156 30.9375 -6.609375 31.40625 -8.390625 C 31.882812 -10.171875 32.125 -12.332031 32.125 -14.875 L 32.125 -68.421875 C 32.125 -73.265625 31.3125 -76.753906 29.6875 -78.890625 C 28.0625 -81.035156 25.898438 -82.109375 23.203125 -82.109375 C 20.503906 -82.109375 18.34375 -81.035156 16.71875 -78.890625 C 15.09375 -76.753906 14.28125 -73.265625 14.28125 -68.421875 L 14.28125 -17.84375 C 16.5 -17.84375 18.398438 -17.523438 19.984375 -16.890625 C 21.578125 -16.265625 22.90625 -15.453125 23.96875 -14.453125 C 25.039062 -13.460938 25.9375 -12.289062 26.65625 -10.9375 C 27.375 -9.59375 27.96875 -8.207031 28.4375 -6.78125 Z M 29.390625 -4.046875"/></g><g id="b"><path d="M 23.796875 0.71875 C 22.523438 0.71875 20.976562 0.554688 19.15625 0.234375 C 17.332031 -0.078125 15.566406 -0.925781 13.859375 -2.3125 C 12.160156 -3.707031 10.710938 -5.789062 9.515625 -8.5625 C 8.328125 -11.34375 7.734375 -15.191406 7.734375 -20.109375 L 7.734375 -83.296875 L 15.46875 -83.296875 L 15.46875 -14.40625 C 15.46875 -10.351562 16.28125 -7.132812 17.90625 -4.75 C 19.53125 -2.375 21.734375 -1.1875 24.515625 -1.1875 C 27.210938 -1.1875 29.570312 -2.21875 31.59375 -4.28125 C 33.613281 -6.34375 34.625 -9.4375 34.625 -13.5625 L 34.625 -83.296875 L 37.609375 -83.296875 L 37.609375 -15.34375 C 37.609375 -12.25 37.226562 -9.671875 36.46875 -7.609375 C 35.71875 -5.546875 34.707031 -3.898438 33.4375 -2.671875 C 32.164062 -1.441406 30.695312 -0.566406 29.03125 -0.046875 C 27.363281 0.460938 25.617188 0.71875 23.796875 0.71875 Z M 23.796875 0.71875"/></g><g id="c"><path d="M 23.203125 0.59375 C 18.128906 0.59375 14.082031 -1.109375 11.0625 -4.515625 C 8.050781 -7.929688 6.546875 -13.367188 6.546875 -20.828125 L 6.546875 -62.46875 C 6.546875 -69.925781 8.050781 -75.359375 11.0625 -78.765625 C 14.082031 -82.179688 18.128906 -83.890625 23.203125 -83.890625 C 28.285156 -83.890625 32.332031 -82.179688 35.34375 -78.765625 C 38.351562 -75.359375 39.859375 -69.925781 39.859375 -62.46875 L 39.859375 -20.828125 C 39.859375 -13.367188 38.351562 -7.929688 35.34375 -4.515625 C 32.332031 -1.109375 28.285156 0.59375 23.203125 0.59375 Z M 23.203125 -1.1875 C 25.898438 -1.1875 28.0625 -2.253906 29.6875 -4.390625 C 31.3125 -6.535156 32.125 -10.03125 32.125 -14.875 L 32.125 -68.421875 C 32.125 -73.265625 31.3125 -76.753906 29.6875 -78.890625 C 28.0625 -81.035156 25.898438 -82.109375 23.203125 -82.109375 C 20.503906 -82.109375 18.34375 -81.035156 16.71875 -78.890625 C 15.09375 -76.753906 14.28125 -73.265625 14.28125 -68.421875 L 14.28125 -14.875 C 14.28125 -10.03125 15.09375 -6.535156 16.71875 -4.390625 C 18.34375 -2.253906 20.503906 -1.1875 23.203125 -1.1875 Z M 23.203125 -1.1875"/></g><g id="d"><path d="M 13.6875 -81.15625 L 0 -81.15625 L 0 -83.296875 L 35.109375 -83.296875 L 35.109375 -81.15625 L 21.421875 -81.15625 L 21.421875 0 L 13.6875 0 Z M 13.6875 -81.15625"/></g><g id="e"><path d="M 8.328125 -83.296875 L 33.3125 -83.296875 L 33.3125 -81.15625 L 16.0625 -81.15625 L 16.0625 -43.4375 L 29.15625 -43.4375 L 29.15625 -41.296875 L 16.0625 -41.296875 L 16.0625 -2.140625 L 35.109375 -2.140625 L 35.109375 0 L 8.328125 0 Z M 8.328125 -83.296875"/></g><g id="f"><path d="M 23.203125 0.59375 C 18.128906 0.59375 14.082031 -1.109375 11.0625 -4.515625 C 8.050781 -7.929688 6.546875 -13.367188 6.546875 -20.828125 L 6.546875 -62.46875 C 6.546875 -69.925781 8.050781 -75.359375 11.0625 -78.765625 C 14.082031 -82.179688 18.128906 -83.890625 23.203125 -83.890625 C 27.960938 -83.890625 31.726562 -82.28125 34.5 -79.0625 C 37.28125 -75.851562 38.671875 -70.519531 38.671875 -63.0625 L 38.671875 -53.546875 L 31.53125 -53.546875 L 31.53125 -68.421875 C 31.53125 -73.265625 30.738281 -76.753906 29.15625 -78.890625 C 27.570312 -81.035156 25.585938 -82.109375 23.203125 -82.109375 C 20.503906 -82.109375 18.34375 -81.035156 16.71875 -78.890625 C 15.09375 -76.753906 14.28125 -73.265625 14.28125 -68.421875 L 14.28125 -14.875 C 14.28125 -10.03125 15.09375 -6.535156 16.71875 -4.390625 C 18.34375 -2.253906 20.503906 -1.1875 23.203125 -1.1875 C 25.585938 -1.1875 27.570312 -2.253906 29.15625 -4.390625 C 30.738281 -6.535156 31.53125 -10.03125 31.53125 -14.875 L 31.53125 -30.34375 L 38.671875 -30.34375 L 38.671875 -20.234375 C 38.671875 -12.773438 37.28125 -7.4375 34.5 -4.21875 C 31.726562 -1.007812 27.960938 0.59375 23.203125 0.59375 Z M 23.203125 0.59375"/></g><g id="g"><path d="M 8.328125 -83.296875 L 23.203125 -83.296875 C 28.597656 -83.296875 32.523438 -82.066406 34.984375 -79.609375 C 37.441406 -77.148438 38.671875 -73.222656 38.671875 -67.828125 L 38.671875 -52.359375 C 38.671875 -47.835938 37.796875 -44.347656 36.046875 -41.890625 C 34.304688 -39.429688 31.570312 -37.882812 27.84375 -37.25 L 42.953125 0 L 34.15625 0 L 20.34375 -36.890625 L 16.0625 -36.890625 L 16.0625 0 L 8.328125 0 Z M 24.390625 -39.265625 C 26.453125 -39.265625 28.054688 -40 29.203125 -41.46875 C 30.359375 -42.9375 30.9375 -45.773438 30.9375 -49.984375 L 30.9375 -70.203125 C 30.9375 -74.492188 30.359375 -77.390625 29.203125 -78.890625 C 28.054688 -80.398438 26.453125 -81.15625 24.390625 -81.15625 L 16.0625 -81.15625 L 16.0625 -39.265625 Z M 24.390625 -39.265625"/></g><g id="h"><path d="M 8.328125 -83.296875 L 22.609375 -83.296875 C 28.316406 -83.296875 32.71875 -81.585938 35.8125 -78.171875 C 38.90625 -74.765625 40.453125 -69.332031 40.453125 -61.875 L 40.453125 -21.421875 C 40.453125 -13.960938 38.90625 -8.523438 35.8125 -5.109375 C 32.71875 -1.703125 28.316406 0 22.609375 0 L 8.328125 0 Z M 23.796875 -2.015625 C 26.492188 -2.015625 28.65625 -3.066406 30.28125 -5.171875 C 31.90625 -7.273438 32.71875 -10.707031 32.71875 -15.46875 L 32.71875 -67.828125 C 32.71875 -72.503906 31.90625 -75.914062 30.28125 -78.0625 C 28.65625 -80.207031 26.492188 -81.28125 23.796875 -81.28125 L 16.0625 -81.28125 L 16.0625 -2.015625 Z M 23.796875 -2.015625"/></g><g id="i"><path d="M 1.140625 -9.453125 L 4.453125 -9.453125 C 5.335938 -9.453125 6.019531 -9.21875 6.5 -8.75 C 6.976562 -8.28125 7.21875 -7.632812 7.21875 -6.8125 C 7.21875 -6.375 7.109375 -5.96875 6.890625 -5.59375 C 6.679688 -5.226562 6.382812 -4.960938 6 -4.796875 C 6.382812 -4.660156 6.707031 -4.394531 6.96875 -4 C 7.226562 -3.601562 7.359375 -3.144531 7.359375 -2.625 C 7.359375 -1.8125 7.113281 -1.171875 6.625 -0.703125 C 6.144531 -0.234375 5.46875 0 4.59375 0 L 1.140625 0 Z M 4.515625 -1.015625 C 5.035156 -1.015625 5.445312 -1.164062 5.75 -1.46875 C 6.050781 -1.769531 6.203125 -2.15625 6.203125 -2.625 C 6.203125 -3.101562 6.050781 -3.492188 5.75 -3.796875 C 5.445312 -4.097656 5.035156 -4.25 4.515625 -4.25 L 2.296875 -4.25 L 2.296875 -1.015625 Z M 4.390625 -5.203125 C 4.898438 -5.203125 5.304688 -5.351562 5.609375 -5.65625 C 5.921875 -5.957031 6.078125 -6.34375 6.078125 -6.8125 C 6.078125 -7.289062 5.921875 -7.679688 5.609375 -7.984375 C 5.304688 -8.285156 4.898438 -8.4375 4.390625 -8.4375 L 2.296875 -8.4375 L 2.296875 -5.203125 Z M 4.390625 -5.203125"/></g><g id="j"><path d="M 4.046875 0.140625 C 3.097656 0.140625 2.351562 -0.15625 1.8125 -0.75 C 1.28125 -1.34375 1.015625 -2.265625 1.015625 -3.515625 L 1.015625 -9.453125 L 2.15625 -9.453125 L 2.15625 -3.515625 C 2.15625 -2.566406 2.328125 -1.890625 2.671875 -1.484375 C 3.015625 -1.078125 3.472656 -0.875 4.046875 -0.875 C 4.617188 -0.875 5.078125 -1.078125 5.421875 -1.484375 C 5.765625 -1.890625 5.9375 -2.566406 5.9375 -3.515625 L 5.9375 -9.453125 L 7.09375 -9.453125 L 7.09375 -3.515625 C 7.09375 -2.265625 6.820312 -1.34375 6.28125 -0.75 C 5.738281 -0.15625 4.992188 0.140625 4.046875 0.140625 Z M 4.046875 0.140625"/></g><g id="k"><path d="M 1.484375 -1.015625 L 3.515625 -1.015625 L 3.515625 -8.4375 L 1.484375 -8.4375 L 1.484375 -9.453125 L 6.6875 -9.453125 L 6.6875 -8.4375 L 4.65625 -8.4375 L 4.65625 -1.015625 L 6.6875 -1.015625 L 6.6875 0 L 1.484375 0 Z M 1.484375 -1.015625"/></g><g id="l"><path d="M 1.28125 -9.453125 L 2.4375 -9.453125 L 2.4375 -1.015625 L 7.15625 -1.015625 L 7.15625 0 L 1.28125 0 Z M 1.28125 -9.453125"/></g><g id="m"><path d="M 3.515625 -8.4375 L 1.75 -8.4375 L 1.75 -6.8125 L 0.609375 -6.8125 L 0.609375 -9.453125 L 7.5 -9.453125 L 7.5 -6.8125 L 6.34375 -6.8125 L 6.34375 -8.4375 L 4.65625 -8.4375 L 4.65625 0 L 3.515625 0 Z M 3.515625 -8.4375"/></g><g id="o"><path d="M 3.4375 -3.640625 L 0.546875 -9.453125 L 1.75 -9.453125 L 3.609375 -5.53125 L 3.9375 -4.453125 L 4.078125 -4.453125 L 4.4375 -5.53125 L 6.28125 -9.453125 L 7.5 -9.453125 L 4.59375 -3.640625 L 4.59375 0 L 3.4375 0 Z M 3.4375 -3.640625"/></g><g id="p"><path d="M 4.125 0.0625 C 3.914062 0.0625 3.738281 -0.00390625 3.59375 -0.140625 C 3.445312 -0.285156 3.375 -0.460938 3.375 -0.671875 C 3.375 -0.878906 3.445312 -1.054688 3.59375 -1.203125 C 3.738281 -1.347656 3.914062 -1.421875 4.125 -1.421875 C 4.320312 -1.421875 4.492188 -1.347656 4.640625 -1.203125 C 4.785156 -1.054688 4.859375 -0.878906 4.859375 -0.671875 C 4.859375 -0.460938 4.785156 -0.285156 4.640625 -0.140625 C 4.492188 -0.00390625 4.320312 0.0625 4.125 0.0625 Z M 4.125 -5.609375 C 3.914062 -5.609375 3.738281 -5.675781 3.59375 -5.8125 C 3.445312 -5.957031 3.375 -6.132812 3.375 -6.34375 C 3.375 -6.550781 3.445312 -6.726562 3.59375 -6.875 C 3.738281 -7.019531 3.914062 -7.09375 4.125 -7.09375 C 4.320312 -7.09375 4.492188 -7.019531 4.640625 -6.875 C 4.785156 -6.726562 4.859375 -6.550781 4.859375 -6.34375 C 4.859375 -6.132812 4.785156 -5.957031 4.640625 -5.8125 C 4.492188 -5.675781 4.320312 -5.609375 4.125 -5.609375 Z M 4.125 -5.609375"/></g><g id="q"><path d="M 4.046875 0.140625 C 3.566406 0.140625 3.113281 0.046875 2.6875 -0.140625 C 2.257812 -0.335938 1.894531 -0.632812 1.59375 -1.03125 C 1.289062 -1.425781 1.050781 -1.925781 0.875 -2.53125 C 0.695312 -3.144531 0.609375 -3.875 0.609375 -4.71875 C 0.609375 -5.570312 0.695312 -6.300781 0.875 -6.90625 C 1.050781 -7.519531 1.289062 -8.023438 1.59375 -8.421875 C 1.894531 -8.816406 2.257812 -9.109375 2.6875 -9.296875 C 3.113281 -9.484375 3.566406 -9.578125 4.046875 -9.578125 C 4.867188 -9.578125 5.546875 -9.347656 6.078125 -8.890625 C 6.609375 -8.441406 6.992188 -7.796875 7.234375 -6.953125 L 6.09375 -6.953125 C 5.90625 -7.460938 5.644531 -7.859375 5.3125 -8.140625 C 4.976562 -8.429688 4.554688 -8.578125 4.046875 -8.578125 C 3.722656 -8.578125 3.421875 -8.507812 3.140625 -8.375 C 2.867188 -8.238281 2.628906 -8.015625 2.421875 -7.703125 C 2.210938 -7.398438 2.046875 -7.003906 1.921875 -6.515625 C 1.804688 -6.035156 1.75 -5.4375 1.75 -4.71875 C 1.75 -4.007812 1.804688 -3.410156 1.921875 -2.921875 C 2.046875 -2.429688 2.210938 -2.035156 2.421875 -1.734375 C 2.628906 -1.429688 2.867188 -1.210938 3.140625 -1.078125 C 3.421875 -0.941406 3.722656 -0.875 4.046875 -0.875 C 4.554688 -0.875 5 -1.035156 5.375 -1.359375 C 5.757812 -1.679688 6.035156 -2.21875 6.203125 -2.96875 L 7.359375 -2.96875 C 7.117188 -1.882812 6.707031 -1.09375 6.125 -0.59375 C 5.550781 -0.101562 4.859375 0.140625 4.046875 0.140625 Z M 4.046875 0.140625"/></g><g id="r"><path d="M 4.046875 0.140625 C 3.566406 0.140625 3.113281 0.046875 2.6875 -0.140625 C 2.257812 -0.335938 1.894531 -0.632812 1.59375 -1.03125 C 1.289062 -1.425781 1.050781 -1.925781 0.875 -2.53125 C 0.695312 -3.144531 0.609375 -3.875 0.609375 -4.71875 C 0.609375 -5.570312 0.695312 -6.300781 0.875 -6.90625 C 1.050781 -7.519531 1.289062 -8.023438 1.59375 -8.421875 C 1.894531 -8.816406 2.257812 -9.109375 2.6875 -9.296875 C 3.113281 -9.484375 3.566406 -9.578125 4.046875 -9.578125 C 4.535156 -9.578125 4.988281 -9.484375 5.40625 -9.296875 C 5.832031 -9.109375 6.195312 -8.816406 6.5 -8.421875 C 6.8125 -8.023438 7.054688 -7.519531 7.234375 -6.90625 C 7.410156 -6.300781 7.5 -5.570312 7.5 -4.71875 C 7.5 -3.875 7.410156 -3.144531 7.234375 -2.53125 C 7.054688 -1.925781 6.8125 -1.425781 6.5 -1.03125 C 6.195312 -0.632812 5.832031 -0.335938 5.40625 -0.140625 C 4.988281 0.046875 4.535156 0.140625 4.046875 0.140625 Z M 4.046875 -0.875 C 4.367188 -0.875 4.671875 -0.941406 4.953125 -1.078125 C 5.234375 -1.210938 5.476562 -1.429688 5.6875 -1.734375 C 5.894531 -2.035156 6.054688 -2.429688 6.171875 -2.921875 C 6.285156 -3.410156 6.34375 -4.007812 6.34375 -4.71875 C 6.34375 -5.4375 6.285156 -6.035156 6.171875 -6.515625 C 6.054688 -7.003906 5.894531 -7.398438 5.6875 -7.703125 C 5.476562 -8.015625 5.234375 -8.238281 4.953125 -8.375 C 4.671875 -8.507812 4.367188 -8.578125 4.046875 -8.578125 C 3.722656 -8.578125 3.421875 -8.507812 3.140625 -8.375 C 2.867188 -8.238281 2.628906 -8.015625 2.421875 -7.703125 C 2.210938 -7.398438 2.046875 -7.003906 1.921875 -6.515625 C 1.804688 -6.035156 1.75 -5.4375 1.75 -4.71875 C 1.75 -4.007812 1.804688 -3.410156 1.921875 -2.921875 C 2.046875 -2.429688 2.210938 -2.035156 2.421875 -1.734375 C 2.628906 -1.429688 2.867188 -1.210938 3.140625 -1.078125 C 3.421875 -0.941406 3.722656 -0.875 4.046875 -0.875 Z M 4.046875 -0.875"/></g><g id="s"><path d="M 1.140625 -9.453125 L 6.8125 -9.453125 L 6.8125 -8.4375 L 2.296875 -8.4375 L 2.296875 -5.265625 L 6.546875 -5.265625 L 6.546875 -4.25 L 2.296875 -4.25 L 2.296875 -1.015625 L 6.953125 -1.015625 L 6.953125 0 L 1.140625 0 Z M 1.140625 -9.453125"/></g><g id="t"><path d="M 0.875 -9.453125 L 2.4375 -9.453125 L 4.015625 -5.0625 L 4.078125 -5.0625 L 5.671875 -9.453125 L 7.21875 -9.453125 L 7.21875 0 L 6.078125 0 L 6.078125 -5.671875 L 6.34375 -8.03125 L 6.203125 -8.03125 L 5.78125 -6.8125 L 4.484375 -3.234375 L 3.609375 -3.234375 L 2.328125 -6.8125 L 1.890625 -8.03125 L 1.75 -8.03125 L 2.03125 -5.671875 L 2.03125 0 L 0.875 0 Z M 0.875 -9.453125"/></g><g id="u"><path d="M 1.140625 -9.453125 L 2.828125 -9.453125 L 5.1875 -3.328125 L 6 -1.21875 L 6.140625 -1.21875 L 5.8125 -3.515625 L 5.8125 -9.453125 L 6.953125 -9.453125 L 6.953125 0 L 5.265625 0 L 2.921875 -6.109375 L 2.09375 -8.234375 L 1.953125 -8.234375 L 2.296875 -5.921875 L 2.296875 0 L 1.140625 0 Z M 1.140625 -9.453125"/></g></defs><g fill="#5B4F47"><use x="5.68" y="135.204" xmlns:xlink="http://www.w3.org/1999/xlink" xlink:href="#a" xlink:type="simple" xlink:actuate="onLoad" xlink:show="embed"/></g><g fill="#5B4F47"><use x="90.763" y="135.204" xmlns:xlink="http://www.w3.org/1999/xlink" xlink:href="#b" xlink:type="simple" xlink:actuate="onLoad" xlink:show="embed"/></g><g fill="#5B4F47"><use x="174.775" y="135.204" xmlns:xlink="http://www.w3.org/1999/xlink" xlink:href="#c" xlink:type="simple" xlink:actuate="onLoad" xlink:show="embed"/></g><g fill="#5B4F47"><use x="259.858" y="135.204" xmlns:xlink="http://www.w3.org/1999/xlink" xlink:href="#d" xlink:type="simple" xlink:actuate="onLoad" xlink:show="embed"/></g><g fill="#5B4F47"><use x="333.637" y="135.204" xmlns:xlink="http://www.w3.org/1999/xlink" xlink:href="#e" xlink:type="simple" xlink:actuate="onLoad" xlink:show="embed"/></g><g fill="#5B4F47"><use x="38.335" y="301.801" xmlns:xlink="http://www.w3.org/1999/xlink" xlink:href="#f" xlink:type="simple" xlink:actuate="onLoad" xlink:show="embed"/></g><g fill="#5B4F47"><use x="121.038" y="301.801" xmlns:xlink="http://www.w3.org/1999/xlink" xlink:href="#g" xlink:type="simple" xlink:actuate="onLoad" xlink:show="embed"/></g><g fill="#5B4F47"><use x="205.645" y="301.801" xmlns:xlink="http://www.w3.org/1999/xlink" xlink:href="#b" xlink:type="simple" xlink:actuate="onLoad" xlink:show="embed"/></g><g fill="#5B4F47"><use x="289.657" y="301.801" xmlns:xlink="http://www.w3.org/1999/xlink" xlink:href="#h" xlink:type="simple" xlink:actuate="onLoad" xlink:show="embed"/></g><g fill="#5B4F47"><use x="56.353" y="187.608" xmlns:xlink="http://www.w3.org/1999/xlink" xlink:href="#i" xlink:type="simple" xlink:actuate="onLoad" xlink:show="embed"/></g><g fill="#5B4F47"><use x="69.063" y="187.608" xmlns:xlink="http://www.w3.org/1999/xlink" xlink:href="#j" xlink:type="simple" xlink:actuate="onLoad" xlink:show="embed"/></g><g fill="#5B4F47"><use x="81.773" y="187.608" xmlns:xlink="http://www.w3.org/1999/xlink" xlink:href="#k" xlink:type="simple" xlink:actuate="onLoad" xlink:show="embed"/></g><g fill="#5B4F47"><use x="94.483" y="187.608" xmlns:xlink="http://www.w3.org/1999/xlink" xlink:href="#l" xlink:type="simple" xlink:actuate="onLoad" xlink:show="embed"/></g><g fill="#5B4F47"><use x="107.193" y="187.608" xmlns:xlink="http://www.w3.org/1999/xlink" xlink:href="#m" xlink:type="simple" xlink:actuate="onLoad" xlink:show="embed"/></g><g fill="#5B4F47"><use x="119.903" y="187.608" xmlns:xlink="http://www.w3.org/1999/xlink" xlink:href="#n" xlink:type="simple" xlink:actuate="onLoad" xlink:show="embed"/></g><g fill="#5B4F47"><use x="132.613" y="187.608" xmlns:xlink="http://www.w3.org/1999/xlink" xlink:href="#i" xlink:type="simple" xlink:actuate="onLoad" xlink:show="embed"/></g><g fill="#5B4F47"><use x="145.323" y="187.608" xmlns:xlink="http://www.w3.org/1999/xlink" xlink:href="#o" xlink:type="simple" xlink:actuate="onLoad" xlink:show="embed"/></g><g fill="#5B4F47"><use x="158.033" y="187.608" xmlns:xlink="http://www.w3.org/1999/xlink" xlink:href="#p" xlink:type="simple" xlink:actuate="onLoad" xlink:show="embed"/></g><g fill="#5B4F47"><use x="170.743" y="187.608" xmlns:xlink="http://www.w3.org/1999/xlink" xlink:href="#n" xlink:type="simple" xlink:actuate="onLoad" xlink:show="embed"/></g><g fill="#5B4F47"><use x="183.453" y="187.608" xmlns:xlink="http://www.w3.org/1999/xlink" xlink:href="#q" xlink:type="simple" xlink:actuate="onLoad" xlink:show="embed"/></g><g fill="#5B4F47"><use x="196.163" y="187.608" xmlns:xlink="http://www.w3.org/1999/xlink" xlink:href="#r" xlink:type="simple" xlink:actuate="onLoad" xlink:show="embed"/></g><g fill="#5B4F47"><use x="208.873" y="187.608" xmlns:xlink="http://www.w3.org/1999/xlink" xlink:href="#l" xlink:type="simple" xlink:actuate="onLoad" xlink:show="embed"/></g><g fill="#5B4F47"><use x="221.583" y="187.608" xmlns:xlink="http://www.w3.org/1999/xlink" xlink:href="#s" xlink:type="simple" xlink:actuate="onLoad" xlink:show="embed"/></g><g fill="#5B4F47"><use x="234.293" y="187.608" xmlns:xlink="http://www.w3.org/1999/xlink" xlink:href="#n" xlink:type="simple" xlink:actuate="onLoad" xlink:show="embed"/></g><g fill="#5B4F47"><use x="247.003" y="187.608" xmlns:xlink="http://www.w3.org/1999/xlink" xlink:href="#t" xlink:type="simple" xlink:actuate="onLoad" xlink:show="embed"/></g><g fill="#5B4F47"><use x="259.713" y="187.608" xmlns:xlink="http://www.w3.org/1999/xlink" xlink:href="#r" xlink:type="simple" xlink:actuate="onLoad" xlink:show="embed"/></g><g fill="#5B4F47"><use x="272.422" y="187.608" xmlns:xlink="http://www.w3.org/1999/xlink" xlink:href="#r" xlink:type="simple" xlink:actuate="onLoad" xlink:show="embed"/></g><g fill="#5B4F47"><use x="285.132" y="187.608" xmlns:xlink="http://www.w3.org/1999/xlink" xlink:href="#u" xlink:type="simple" xlink:actuate="onLoad" xlink:show="embed"/></g><g fill="#5B4F47"><use x="297.842" y="187.608" xmlns:xlink="http://www.w3.org/1999/xlink" xlink:href="#s" xlink:type="simple" xlink:actuate="onLoad" xlink:show="embed"/></g><g fill="#5B4F47"><use x="310.552" y="187.608" xmlns:xlink="http://www.w3.org/1999/xlink" xlink:href="#o" xlink:type="simple" xlink:actuate="onLoad" xlink:show="embed"/></g></svg>